<svg xmlns="http://www.w3.org/2000/svg" viewBox="0 0 24 24" role="img" aria-label="WhatsApp logo">
  <rect width="24" height="24" rx="4" fill="none"/>
  <path d="M20.5 3.5A11.9 11.9 0 0012 .5C6 0 1 5 1 11.1c0 1.9.5 3.7 1.5 5.3L.1 23l6.8-2c1.4.7 3 1.1 4.6 1.1 6 0 11-5 11-11.1 0-3-1.1-5.8-3-7.6z" fill="#25D366"/>
  <path d="M16.3 14.2c-.4-.2-2.2-1.1-2.6-1.2-.4-.1-.6-.2-.9.2s-1 1.2-1.1 1.5c-.2.3-.4.4-.8.2-1-.5-2.1-1.8-2.8-3.1-.2-.5.2-.8.6-1.1.3-.2.6-.4.9-.6.3-.2.4-.3.6-.6.2-.3.1-.6-.1-.8-.1-.2-1.1-2.6-1.6-3.5-.4-.8-1-1.1-1.4-1.2-.4-.1-.9 0-1.4 0S6 6.1 5.6 6.6c-.6.7-.8 1.5-.9 2.4-.1.9.4 1.8 1 2.4 1 .9 2.6 2.4 4.1 3.1.6.3 1.1.5 1.6.6.6.1 1.1 0 1.5-.2.4-.2 1.3-.4 1.7-.5.3-.1.7-.3.8-.5.1-.2.1-.4 0-.6z" fill="#fff"/>
</svg>